<svg id="Layer_1" xmlns="http://www.w3.org/2000/svg" width="736" height="96"><path d="M81.8 49.9c0 9.1-1.7 17.2-5.1 24.2s-8.2 12.4-14.4 16.2S49 96 41 96s-15-1.8-21.2-5.5-11-8.9-14.4-15.7S.2 60.2 0 51.4v-5.3C0 37 1.7 28.9 5 21.9S13.2 9.5 19.5 5.7C25.7 1.9 32.9 0 40.9 0c7.9 0 15 1.9 21.2 5.6 6.2 3.8 11 9.1 14.5 16.1 3.4 7 5.2 14.9 5.2 23.9v4.3zm-23-3.9c0-9.3-1.6-16.3-4.7-21.1s-7.5-7.2-13.3-7.2c-11.3 0-17.3 8.5-17.9 25.4l-.1 6.9c0 9.2 1.5 16.2 4.6 21.1 3 4.9 7.6 7.4 13.5 7.4 5.7 0 10.1-2.4 13.2-7.3 3.1-4.8 4.6-11.8 4.7-20.9V46zm51.9 17v31.7H88.1V1.3h37.3c7.1 0 13.5 1.3 19 3.9s9.8 6.4 12.8 11.2c3 4.9 4.5 10.4 4.5 16.5 0 9.1-3.3 16.4-9.8 21.9S136.4 63 125 63h-14.3zm0-17.4h14.8c4.4 0 7.7-1.1 10-3.3s3.4-5.3 3.4-9.2c0-4.4-1.2-7.8-3.5-10.5-2.4-2.6-5.6-3.9-9.6-4h-15l-.1 27zm116.1 9.5h-35.4v22.3h41.8v17.3h-64.4V1.3h64.5v17.4h-42v19.7h35.4v16.7h.1zm93.5 39.6h-22.4l-33.1-58.1v58.1h-22.5V1.3h22.5l33 58.1V1.3h22.5v93.4z" fill="#da251d"/><path d="M363.7 61.7h-12.2v33H329V1.3h36.8c11.1 0 19.7 2.5 26 7.4 6.2 4.9 9.4 11.9 9.4 20.8 0 6.5-1.3 11.9-3.9 16.2s-6.8 7.7-12.4 10.4l19.5 37.7v1h-24.1l-16.6-33.1zm-12.2-17.4h14.2c4.3 0 7.5-1.1 9.7-3.4 2.2-2.3 3.2-5.4 3.2-9.4s-1.1-7.2-3.3-9.5-5.4-3.4-9.6-3.4h-14.2v25.7zM488 49.9c0 9.1-1.7 17.2-5.1 24.2s-8.2 12.4-14.4 16.2c-6.2 3.8-13.3 5.7-21.3 5.7s-15-1.8-21.2-5.5-11-8.9-14.4-15.7c-3.4-6.8-5.3-14.6-5.4-23.4v-5.3c0-9.2 1.7-17.2 5-24.2 3.4-7 8.2-12.4 14.4-16.2C432 1.9 439.1 0 447.1 0c7.9 0 15 1.9 21.2 5.6 6.2 3.8 11 9.1 14.5 16.1 3.4 7 5.2 14.9 5.2 23.9v4.3zM465.1 46c0-9.3-1.6-16.3-4.7-21.1s-7.5-7.2-13.3-7.2c-11.3 0-17.3 8.5-17.9 25.4l-.1 6.9c0 9.2 1.5 16.2 4.6 21.1 3 4.9 7.6 7.4 13.5 7.4 5.7 0 10.1-2.4 13.2-7.3 3.1-4.8 4.6-11.8 4.7-20.9V46zm120.1 48.7V1.3h30.1c8.3 0 15.7 1.9 22.3 5.6s11.7 9 15.4 15.9c3.7 6.8 5.6 14.5 5.6 22.9V50c0 8.6-1.8 16.2-5.4 23-3.6 6.8-8.7 12.1-15.3 15.9s-13.9 5.8-22 5.8h-30.7zm22.6-76v58.7h7.8c6.5 0 11.4-2.3 14.9-6.9s5.2-11.4 5.2-20.5v-4c0-9-1.7-15.8-5.2-20.4s-8.5-6.9-15.1-6.9h-7.6zm105.7 51.2c0-3.3-1.2-5.9-3.5-7.7s-6.4-3.7-12.3-5.7c-5.8-2-10.6-3.9-14.3-5.7-12.1-5.9-18.1-14.1-18.1-24.5 0-5.2 1.5-9.7 4.5-13.7s7.3-7 12.8-9.2S694.3.1 701.2.1c6.7 0 12.7 1.2 18 3.6s9.4 5.8 12.4 10.2S736 23.3 736 29h-22.4c0-3.8-1.2-6.8-3.5-8.9s-5.5-3.1-9.4-3.1c-4 0-7.2.9-9.5 2.7-2.3 1.8-3.5 4-3.5 6.8 0 2.4 1.3 4.6 3.8 6.5 2.6 1.9 7.1 4 13.5 6 6.4 2.1 11.7 4.3 15.9 6.7C731 51.5 736 59.5 736 69.8c0 8.2-3.1 14.6-9.2 19.3-6.1 4.7-14.6 7-25.3 7-7.6 0-14.4-1.4-20.5-4.1s-10.7-6.4-13.8-11.2c-3.1-4.7-4.6-10.2-4.6-16.3h22.5c0 5 1.3 8.7 3.9 11.1 2.6 2.4 6.8 3.6 12.6 3.6 3.7 0 6.6-.8 8.8-2.4 2.1-1.8 3.1-4 3.1-6.9zM578.4 87.5L557.9 5.7c-.7-2.6-3-4.4-5.7-4.4h-13v14.6h-11.7V1.2h-13c-2.7 0-5 1.8-5.7 4.4l-20.5 81.8c-.9 3.7 1.9 7.3 5.7 7.3h33.4V80.1h11.7v14.6h33.4c4 0 6.8-3.5 5.9-7.2zm-39.1-24.9h-11.7V33.4h11.7v29.2z" fill="#fff"/></svg>