<svg id="Layer_1" xmlns="http://www.w3.org/2000/svg" width="512" height="512"><path d="M32 0v512M64 0v512M96 0v512M128 0v512M160 0v512M192 0v512M224 0v512M256 0v512M288 0v512M320 0v512M352 0v512M384 0v512M416 0v512M448 0v512M480 0v512M0 32h512M0 64h512M0 96h512M0 128h512M0 160h512M0 192h512M0 224h512M0 256h512M0 288h512M0 320h512M0 352h512M0 384h512M0 416h512M0 448h512M0 480h512M0 0h512v512H0z" id="svgGrid" fill="none" stroke="#B35047"/><path d="M64 424h65.5V177H64v247zm0-276.4h65.5V88H64v59.6zm404.4 46c-4.2-19.3-12.2-37.3-23.8-53.9-14.5-20.5-33.5-34.7-56.9-42.4-13.8-4.5-31-6.9-51.7-7.3H192v334h144c50.5 0 87.8-20.8 112-62.3 17.8-30.8 26.8-68.4 26.8-112.8 0-17.6-2.1-36-6.4-55.3zm-75.2 123.7c-13 32.5-36 48.7-69 48.7h-64.5V148h64.5c31.8 0 53 9.1 63.7 27.3 10.7 18.2 16 44.3 16 78.3 0 24.6-3.6 45.9-10.7 63.7z"/></svg>