<svg xmlns="http://www.w3.org/2000/svg" id="Layer_1" width="512" height="512"><path d="M361.4 284.1l-4.9 3.9h8.8l-3.9-3.9zm27.9 27.9h-62.9l-10 8h81l-8.1-8zm-16-16h-26.8l-10 8h44.9l-8.1-8zm-97.2 56h101.8l10.2-8h-102l-10 8zM256 448l10.2-8h-20.3l10.1 8zm-40.6-32h81.3l10.2-8H205.2l10.2 8zm-20.3-16H317l10.2-8H184.9l10.2 8zm40.6 32h40.6l10.2-8h-60.9l10.1 8zm-61-48h162.5l10.2-8H164.6l10.1 8zm-30.4-24l10.2 8H256l-10-8H144.3zm161.9-32l-10 8h102l8.4-6.6-1.4-1.4h-99zM256 368h101.6l10.2-8H266l-10 8zm-105.4-83.9l-3.9 3.9h8.8l-4.9-3.9zm15 11.9h-26.8l-8 8h44.9l-10.1-8zm60.3 48h-102l10.2 8h101.8l-10-8zm-20.1-16h-99l-1.4 1.4 8.4 6.6h102l-10-8zm-20.1-16h-62.9l-8 8h81l-10.1-8zM256 144l105.4 83.9 45.3-45.3L256 64 105.4 182.6l45.3 45.3L256 144z"/></svg>