<svg xmlns="http://www.w3.org/2000/svg" id="Layer_1" width="512" height="512"><path d="M296.6 96h-81.3l-10.2 8h101.6l-10.1-8zm-60.7 64H134.1l-10.2 8h101.9l10.1-8zm40.4-80h-40.6l-10.2 8h60.9l-10.1-8zm61 48H174.7l-10.2 8h182.8l-10-8zm-20.4-16H195.1l-10.2 8h142.2l-10.2-8zM256 64l-10.2 8h20.3L256 64zm111.7 88l-10.2-8H256l10 8h101.7zM256 144H154.4l-10.2 8H246l10-8zm50.2 40h99l1.4-1.4-8.4-6.6h-102l10 8zm-20.1-16H388l-10.2-8H276.1l10 8zm95.2 40h-44.9l10 8h26.8l8.1-8zm-24.8 16l4.9 3.9 3.9-3.9h-8.8zm-150.7-40l10-8h-102l-8.4 6.6 1.4 1.4h99zm191.5 8h-81l10 8h62.9l8.1-8zm-221.7 16h-44.9l8 8h26.8l10.1-8zm-28.9 16l3.9 3.9 4.9-3.9h-8.8zm49-32h-81l8 8h62.9l10.1-8zM256 368l-105.4-83.9-45.3 45.3L256 448l150.6-118.6-45.3-45.3L256 368z"/></svg>